Coordinates
version=1
nRows=21
nColumns=28
inDegrees=yes

Units are S.I. units (second, meters, Newtons, ...)
Angles are in degrees.

endheader
time	pelvis_tilt	pelvis_list	pelvis_rotation	pelvis_tx	pelvis_ty	pelvis_tz	hip_flexion_r	hip_adduction_r	hip_rotation_r	knee_angle_r	ankle_angle_r	subtalar_angle_r	mtp_angle_r	hip_flexion_l	hip_adduction_l	hip_rotation_l	knee_angle_l	socket_flexion	socket_adduction	socket_rotation	socket_tx	socket_ty	socket_tz	foot_flex	lumbar_extension	lumbar_bending	lumbar_rotation
      0.95000000	      8.20225865	      7.30092091	      2.34326610	      0.42757122	      1.05113939	      0.29127956	     -3.33379002	     -5.42634824	    -13.07454862	    -18.58638806	     13.92849730	     -0.29983686	     13.48895253	      4.69363880	      8.12699806	     -0.07458638	    -55.81088761	      0.00000000	      0.00000000	      0.00000000	      0.00000000	      0.00000000	      0.00000000	      2.08849364	    -17.60595986	     -7.06957867	     -1.84396245
      0.95416667	      8.10030573	      7.46354630	      2.08749670	      0.43299793	      1.05179320	      0.29174475	     -3.82872974	     -5.58655066	    -13.08203131	    -17.95576799	     13.79842712	      0.19596100	     13.53615997	      5.17593910	      8.36638603	     -0.15393500	    -55.11185666	      0.00000000	      0.00000000	      0.00000000	      0.00000000	      0.00000000	      0.00000000	      2.01805480	    -17.37083255	     -7.34346393	     -1.59674737
      0.95833333	      8.05636076	      7.54541733	      1.83066056	      0.43780788	      1.05236673	      0.29214717	     -4.20474495	     -5.69414007	    -13.11956017	    -17.62408660	     13.68051415	      0.65760755	     13.60719053	      5.68037987	      8.52857812	     -0.19931688	    -54.48691953	      0.00000000	      0.00000000	      0.00000000	      0.00000000	      0.00000000	      0.00000000	      1.98257537	    -17.32046233	     -7.49329590	     -1.32813789
      0.96250000	      8.07108670	      7.51827973	      1.64466216	      0.44179992	      1.05279404	      0.29244805	     -4.46106788	     -5.69654742	    -13.20361650	    -17.60471258	     13.68284586	      0.70181710	     13.61795006	      6.25995531	      8.56935591	     -0.18929349	    -54.03234954	      0.00000000	      0.00000000	      0.00000000	      0.00000000	      0.00000000	      0.00000000	      2.01875897	    -17.49507202	     -7.47674080	     -1.29567958
      0.96666667	      8.04313860	      7.70827153	      1.22854453	      0.44717318	      1.05330150	      0.29301116	     -4.82461250	     -6.01867733	    -13.45205871	    -17.34675275	     13.63818820	      2.22068217	     14.18029421	      6.60527536	      8.82484366	     -0.36903092	    -53.17149155	      0.00000000	      0.00000000	      0.00000000	      0.00000000	      0.00000000	      0.00000000	      1.96108212	    -17.33633203	     -7.85840255	     -0.35699647
      0.97083333	      7.99004595	      7.73658746	      1.04415238	      0.45185587	      1.05370840	      0.29331928	     -5.16991284	     -6.06396583	    -13.53016582	    -17.06965791	     13.66340523	      2.36530486	     14.24352221	      7.10374266	      8.92333729	     -0.32079775	    -52.47798488	      0.00000000	      0.00000000	      0.00000000	      0.00000000	      0.00000000	      0.00000000	      1.93846410	    -17.28910048	     -7.90823428	     -0.36032824
      0.97500000	      7.92104925	      7.78348514	      0.85772337	      0.45656184	      1.05405526	      0.29363877	     -5.52730810	     -6.12412067	    -13.58549984	    -16.72026366	     13.54274594	      2.74322356	     14.37044587	      7.60488056	      9.03947443	     -0.26815708	    -51.75765491	      0.00000000	      0.00000000	      0.00000000	      0.00000000	      0.00000000	      0.00000000	      1.90478188	    -17.23143120	     -8.00264680	     -0.26270932
      0.97916667	      7.86845548	      7.77553138	      0.66135612	      0.46122508	      1.05436672	      0.29394878	     -5.85320783	     -6.13643147	    -13.66372057	    -16.46853253	     13.51024915	      2.95593363	     14.44555698	      8.07814604	      9.09280731	     -0.21950295	    -51.01107729	      0.00000000	      0.00000000	      0.00000000	      0.00000000	      0.00000000	      0.00000000	      1.89190676	    -17.19051839	     -8.01773781	     -0.17854145
      0.98333333	      7.81676774	      7.75343207	      0.46864232	      0.46581519	      1.05464190	      0.29420206	     -6.15902497	     -6.13894854	    -13.71115791	    -16.26700332	     13.47107728	      3.13938341	     14.49764876	      8.53617578	      9.13742789	     -0.12772228	    -50.21887643	      0.00000000	      0.00000000	      0.00000000	      0.00000000	      0.00000000	      0.00000000	      1.88498458	    -17.16631768	     -7.99986728	     -0.09568494
      0.98750000	      7.73358919	      7.76442490	      0.28270364	      0.47048967	      1.05483408	      0.29453174	     -6.51731629	     -6.15395301	    -13.72269351	    -15.85450821	     13.31558537	      3.59238170	     14.63054951	      9.01475269	      9.20188670	     -0.05759357	    -49.41175768	      0.00000000	      0.00000000	      0.00000000	      0.00000000	      0.00000000	      0.00000000	      1.84941335	    -17.08906711	     -8.09436541	      0.12569486
      0.99166667	      7.71306887	      7.69886382	      0.09396631	      0.47469708	      1.05495291	      0.29476376	     -6.75045997	     -6.13101140	    -13.80315947	    -15.81545285	     13.32072109	      3.64658044	     14.65733923	      9.48422925	      9.19089284	      0.03729736	    -48.66200117	      0.00000000	      0.00000000	      0.00000000	      0.00000000	      0.00000000	      0.00000000	      1.87352738	    -17.16855714	     -8.02578233	      0.16384986
      0.99583333	      7.60962100	      7.68308627	     -0.10152868	      0.47971097	      1.05512914	      0.29510374	     -7.13437899	     -6.11616866	    -13.82745320	    -15.35468160	     13.13464169	      4.20366634	     14.87936574	      9.88339782	      9.22464441	      0.13948472	    -47.69532664	      0.00000000	      0.00000000	      0.00000000	      0.00000000	      0.00000000	      0.00000000	      1.82537178	    -17.00130560	     -8.07939080	      0.48811679
      1.00000000	      7.54089488	      7.63813626	     -0.27507885	      0.48431165	      1.05518273	      0.29535314	     -7.43847048	     -6.08880404	    -13.87590373	    -15.11099269	     13.13948267	      4.40148574	     14.99467144	     10.30750931	      9.22654625	      0.26149639	    -46.79899931	      0.00000000	      0.00000000	      0.00000000	      0.00000000	      0.00000000	      0.00000000	      1.79366735	    -16.95455805	     -8.06203663	      0.59264207
      1.00416667	      7.49443348	      7.55364320	     -0.46167595	      0.48872922	      1.05517534	      0.29557045	     -7.68028359	     -6.04027634	    -13.92445351	    -15.02110972	     13.13362665	      4.49507077	     15.03885806	     10.70841087	      9.19658731	      0.42891460	    -45.90238794	      0.00000000	      0.00000000	      0.00000000	      0.00000000	      0.00000000	      0.00000000	      1.80172799	    -16.95089470	     -7.97142595	      0.64730300
      1.00833333	      7.41841513	      7.47635320	     -0.62660151	      0.49326084	      1.05514839	      0.29581640	     -7.95732109	     -5.97542439	    -13.95143575	    -14.80676074	     13.11823159	      4.64568100	     15.08747814	     11.11343311	      9.15921159	      0.59576436	    -44.95933061	      0.00000000	      0.00000000	      0.00000000	      0.00000000	      0.00000000	      0.00000000	      1.78026338	    -16.89937043	     -7.90695063	      0.72591243
      1.01250000	      7.28699766	      7.39602207	     -0.74531095	      0.49799884	      1.05503232	      0.29607349	     -8.32691649	     -5.85922218	    -13.91772191	    -14.29597436	     12.91184657	      5.06736767	     15.26216065	     11.55813381	      9.11555533	      0.78252057	    -44.01243415	      0.00000000	      0.00000000	      0.00000000	      0.00000000	      0.00000000	      0.00000000	      1.74639906	    -16.76869721	     -7.88385549	      0.99461230
      1.01666667	      7.22401688	      7.29079490	     -0.91481321	      0.50241339	      1.05488688	      0.29629189	     -8.55381685	     -5.78199655	    -13.96941947	    -14.20729627	     12.92438708	      5.13438861	     15.31629844	     11.93898043	      9.04432476	      0.96900912	    -43.04975380	      0.00000000	      0.00000000	      0.00000000	      0.00000000	      0.00000000	      0.00000000	      1.73702053	    -16.76129514	     -7.78062258	      1.04766453
      1.02083333	      7.13587073	      7.18461454	     -1.05465020	      0.50691018	      1.05468320	      0.29653907	     -8.82114910	     -5.67816950	    -13.98314149	    -13.99187427	     12.92156563	      5.26326256	     15.37604074	     12.32537487	      8.96631863	      1.18243931	    -42.06006477	      0.00000000	      0.00000000	      0.00000000	      0.00000000	      0.00000000	      0.00000000	      1.70657352	    -16.70222642	     -7.68641922	      1.12702016
      1.02500000	      6.98307579	      7.06055071	     -1.10772159	      0.51161206	      1.05440056	      0.29674702	     -9.15944544	     -5.49088482	    -13.92493170	    -13.53384691	     12.82118182	      5.52046974	     15.48848013	     12.75984004	      8.86669043	      1.42596624	    -41.06838970	      0.00000000	      0.00000000	      0.00000000	      0.00000000	      0.00000000	      0.00000000	      1.65392851	    -16.56941505	     -7.61896877	      1.29279548
      1.02916667	      6.86774538	      6.90587914	     -1.23305848	      0.51611025	      1.05409054	      0.29688510	     -9.43210868	     -5.32938609	    -13.92129472	    -13.23043167	     12.69912730	      5.64219705	     15.63193368	     13.15945392	      8.74547957	      1.70339569	    -40.07121023	      0.00000000	      0.00000000	      0.00000000	      0.00000000	      0.00000000	      0.00000000	      1.64256465	    -16.48977079	     -7.45060423	      1.43372663
      1.03333333	      6.80262619	      6.77077831	     -1.38268152	      0.52047844	      1.05375165	      0.29716428	     -9.63413095	     -5.21569587	    -13.96985942	    -13.20495819	     12.71183760	      5.66185372	     15.67032099	     13.49768742	      8.62071194	      1.92648876	    -39.04832610	      0.00000000	      0.00000000	      0.00000000	      0.00000000	      0.00000000	      0.00000000	      1.65061483	    -16.48221555	     -7.33276760	      1.46080393
